<svg width="36" height="37" viewBox="0 0 36 37" fill="none" xmlns="http://www.w3.org/2000/svg">
<path d="M18 36.043C27.9411 36.043 36 27.9841 36 18.043C36 8.10184 27.9411 0.0429688 18 0.0429688C8.05888 0.0429688 0 8.10184 0 18.043C0 27.9841 8.05888 36.043 18 36.043Z" fill="#6D6C6F"/>
<path d="M19.5112 16.154C19.9342 15.9153 20.3224 15.6976 20.7095 15.4775C21.4937 15.0314 22.2745 14.5799 23.0621 14.1407C23.2121 14.0574 23.2679 13.9652 23.2748 13.7922C23.3072 12.9059 23.3513 12.0205 23.4017 11.1357C23.4321 10.6087 23.7487 10.2156 24.2232 10.0852C24.8706 9.90673 25.5715 10.4215 25.5715 11.0984C25.5715 11.523 25.5225 11.947 25.497 12.373C25.4906 12.4838 25.497 12.5951 25.497 12.7456C25.8891 12.521 26.2562 12.3215 26.613 12.1083C27.2908 11.7029 28.076 12.0102 28.2857 12.7686C28.394 13.1608 28.2122 13.6427 27.8392 13.8829C27.5109 14.0946 27.1668 14.2799 26.8296 14.4775C26.7463 14.5265 26.6639 14.5755 26.5561 14.6412L27.2521 15.0216C27.8985 15.376 28.0774 16.0839 27.6672 16.6653C27.3878 17.0609 26.7968 17.2148 26.3508 16.9825C25.7773 16.6844 25.2112 16.3717 24.6496 16.0511C24.4589 15.9422 24.3119 15.8996 24.0953 16.0266C22.9503 16.6982 21.7917 17.3501 20.5973 18.0296C20.8963 18.2036 21.1668 18.3634 21.4393 18.5198C22.3395 19.0345 23.24 19.5486 24.1408 20.062C24.2683 20.135 24.3707 20.1708 24.5261 20.0797C25.0897 19.7492 25.6675 19.4424 26.2415 19.1286C26.7345 18.859 27.2021 18.9325 27.5966 19.338C27.9323 19.684 28.0049 20.1855 27.7133 20.6066C27.5662 20.8179 27.3212 20.9674 27.107 21.1223C26.9472 21.237 26.7639 21.3155 26.5537 21.4287C26.9399 21.6488 27.2972 21.8586 27.6608 22.0582C28.2102 22.3596 28.4318 22.8783 28.2392 23.4308C28.0206 24.0528 27.2727 24.3278 26.6973 23.9989C26.3101 23.7773 25.9209 23.5577 25.4886 23.3126C25.4975 23.4847 25.5083 23.6141 25.5107 23.7435C25.5205 24.2308 25.5783 24.7239 25.521 25.2034C25.4622 25.6936 24.95 26.0308 24.4427 26.0132C23.957 25.996 23.5115 25.6137 23.4429 25.124C23.3939 24.795 23.3772 24.4617 23.3591 24.1298C23.3243 23.4852 23.3018 22.84 23.265 22.1954C23.2625 22.1559 23.2517 22.1173 23.2334 22.0822C23.2151 22.0471 23.1896 22.0162 23.1586 21.9915C21.9719 21.3052 20.7824 20.6243 19.5901 19.9488C19.5643 19.9412 19.5376 19.9371 19.5107 19.9365V20.1292C19.5107 21.4179 19.5132 22.7062 19.5107 23.995C19.5107 24.1298 19.5446 24.2073 19.6671 24.2837C20.3042 24.6818 20.9458 25.0784 21.5633 25.5093C22.1025 25.8857 22.1397 26.8819 21.43 27.274C21.06 27.4804 20.685 27.478 20.3189 27.2515L19.5269 26.7613C19.521 26.8701 19.5142 26.9436 19.5142 27.0167C19.5142 27.7716 19.5142 28.526 19.5142 29.2805C19.5142 29.8246 19.0883 30.3099 18.5658 30.3688C18.0036 30.43 17.4317 30.0516 17.3082 29.532C17.2941 29.4552 17.2888 29.3771 17.2925 29.2991C17.2925 28.5448 17.2925 27.7902 17.2925 27.0353V26.7549C17.0131 26.9265 16.7735 27.0706 16.5372 27.2196C15.8256 27.6687 15.0233 27.3392 14.8355 26.5201C14.7527 26.1568 14.9424 25.6867 15.2869 25.4622C15.8569 25.0887 16.4309 24.72 17.0131 24.3656C17.2092 24.2474 17.3028 24.1269 17.2998 23.8813C17.2851 22.6425 17.2935 21.4037 17.294 20.1649V19.9081C17.0063 20.0684 16.7436 20.2125 16.4828 20.361C15.6094 20.8561 14.7537 21.3802 13.8646 21.8366C13.5216 22.0145 13.5108 22.2734 13.4946 22.5606C13.4554 23.2621 13.4368 23.9641 13.3995 24.6656C13.3955 24.8708 13.3659 25.0747 13.3113 25.2725C13.1515 25.7779 12.6188 26.0975 12.1306 26.0078C11.5876 25.9068 11.2146 25.4764 11.2278 24.9293C11.2401 24.4264 11.2768 23.9244 11.3048 23.4214C11.3022 23.387 11.2964 23.3529 11.2876 23.3195C10.9445 23.5156 10.6088 23.7009 10.2819 23.8965C9.9104 24.1185 9.53154 24.2357 9.11103 24.0376C8.9371 23.9592 8.78735 23.8356 8.67737 23.6797C8.5674 23.5238 8.50121 23.3412 8.4857 23.1511C8.47019 22.9609 8.50592 22.77 8.58917 22.5983C8.67243 22.4266 8.80016 22.2804 8.95909 22.1748C9.29432 21.9498 9.65701 21.7655 10.006 21.5611C10.0702 21.5238 10.13 21.4792 10.2059 21.4287C9.88932 21.239 9.59084 21.0763 9.31001 20.8895C8.98948 20.6738 8.8297 20.1973 8.93409 19.8042C9.04584 19.385 9.31883 19.1281 9.73984 19.0071C10.1692 18.8835 10.4971 19.109 10.8377 19.2929C11.3317 19.559 11.8179 19.8385 12.3129 20.1032C12.3486 20.1214 12.3878 20.1319 12.4278 20.1339C12.4679 20.1359 12.5079 20.1295 12.5452 20.1149C13.7509 19.4345 14.9522 18.7463 16.1892 18.0389C15.8873 17.8634 15.6094 17.6997 15.3301 17.5403C14.4297 17.0256 13.5274 16.5143 12.6291 15.9971C12.5727 15.9604 12.5069 15.9409 12.4396 15.9409C12.3724 15.9409 12.3066 15.9604 12.2502 15.9971C11.6665 16.3222 11.0852 16.6511 10.4931 16.9604C9.85306 17.2943 9.13063 16.9683 8.94095 16.2771C8.80617 15.7868 9.05613 15.2849 9.57026 15.0084C9.78003 14.8951 9.98686 14.775 10.2324 14.6368C9.85992 14.4241 9.51978 14.2481 9.20317 14.0407C8.99928 13.9079 8.78657 13.7569 8.64787 13.5637C8.36262 13.1642 8.45182 12.5867 8.80225 12.2328C9.13308 11.8999 9.71092 11.8343 10.1211 12.0754C10.499 12.298 10.8813 12.5127 11.2974 12.7514C11.2803 12.3911 11.2626 12.072 11.2484 11.7524C11.2386 11.4754 11.2063 11.1955 11.2352 10.9225C11.2842 10.4666 11.7503 10.0729 12.2781 10.0494C12.6521 10.0332 13.105 10.2489 13.2677 10.693C13.342 10.906 13.3854 11.1285 13.3966 11.3538C13.4387 12.048 13.4593 12.7431 13.4917 13.4377C13.4995 13.6074 13.5127 13.7775 13.5358 13.9456C13.5421 13.9922 13.5892 14.0348 13.622 14.076C13.6338 14.0912 13.6588 14.0961 13.6774 14.1064L17.2748 16.1614C17.2812 16.0633 17.2891 15.9957 17.2891 15.929C17.2891 14.6545 17.2846 13.3799 17.2944 12.1053C17.2944 11.9259 17.2234 11.8372 17.0871 11.7524C16.515 11.3949 15.945 11.0341 15.3771 10.67C15.0831 10.4818 14.8948 10.2288 14.8306 9.87094C14.738 9.3572 15.1615 8.76649 15.6756 8.66551C16.1245 8.57727 16.4544 8.79296 16.7955 9.01111C16.9479 9.10915 17.1009 9.20719 17.2886 9.32484V8.42579C17.2886 7.86303 17.2886 7.30075 17.2886 6.73848C17.2915 6.00316 18.0923 5.47863 18.7716 5.76148C19.2716 5.96982 19.5107 6.32817 19.5107 6.86887V9.31406C19.7749 9.14837 20.0092 9.00572 20.2386 8.8562C20.8728 8.44344 21.5805 8.63462 21.8834 9.32239C22.0549 9.71457 21.953 10.318 21.5011 10.6048C20.8899 10.993 20.2787 11.3818 19.673 11.7789C19.6014 11.8279 19.5597 11.923 19.5132 12.0019C19.4975 12.0284 19.5102 12.0715 19.5102 12.1073L19.5112 16.154Z" fill="white"/>
</svg>
